<svg version="1.1" xmlns="http://www.w3.org/2000/svg" viewBox="0 0 512 512"><g transform="rotate(90) translate(0,-512)"><path d="M176.258,301.773c-0.367,7.141-0.352,13.914,0.055,20.272l0.516,7.5c0.234,5.328,3.836,10.267,9.156,12.345 l32.078,10.016c2.266,7.141,5.156,14.117,8.641,20.828l-15.156,29.453c-2.758,4.641-2.055,11.202,2.086,15.766l4.906,5.484 c4.273,4.922,9.125,9.766,14.32,14.219l5.18,4.766c3.313,2.531,6.281,3.563,9.414,3.563c1.953,0,3.898-0.438,5.75-1.188 l30.164-15.547c6.516,3.453,13.133,6.281,20.258,8.609l10.023,31.188c0.327,1.234,0.977,2.938,2.233,4.578 c2.578,3.453,6.478,5.422,10.797,5.422l6.742,0.531c4.103,0.281,8.086,0.422,12,0.422c2.805,0,5.57-0.094,8.305-0.266l7.587-0.563 c5.405-0.188,10.397-3.891,12.352-9.438l10.047-31.673c7.547-2.422,14.445-5.25,20.883-8.641l29.32,15.25 c0.328,0.125,0.664,0.328,1.008,0.422c1.797,0.688,3.672,1.047,5.547,1.047c3.148,0,6.148-1.016,8.681-2.891l6.194-5.547 c5.031-4.344,9.867-9.109,14.22-14.156l4.813-5.375c4.141-4.578,4.82-11.375,1.633-16.516l-14.727-28.695 c3.483-6.727,6.391-13.703,8.656-20.852l31.344-9.797c5.93-2.133,9.641-7.095,9.891-12.806l0.508-7.164 c0.406-6.319,0.422-12.891,0.07-20.194l-0.469-7.103c-0.047-2.133-0.625-5.039-2.859-7.978c-0.344-0.461-0.719-0.897-1.147-1.297 c-1.375-1.297-2.813-2.28-4.517-3.094c-0.422-0.195-0.858-0.367-1.319-0.516l-31.375-9.945c-2.353-7.297-5.259-14.313-8.703-20.922 l15.094-29.039c2.539-5.203,1.945-10.891-1.43-15.133c-0.82-1.07-2.22-2.82-4.875-6.094c-4.336-4.898-8.853-9.375-14.509-14.5 l-5.711-4.945c-2.68-2.273-5.953-3.5-9.305-3.5c-2.234,0-4.492,0.57-6.461,1.617l-29.188,14.953 c-6.913-3.516-13.922-6.398-20.952-8.578l-9.898-31.469c-0.445-1.305-1.258-3.211-2.875-4.977c-1.977-2.406-5.32-4.211-9.047-4.695 l-7.938-0.609c-3.28-0.219-6.438-0.297-9.594-0.297c-3.555,0-7.102,0.094-10.57,0.258l-7.477,0.445 c-6.359,0.508-11.555,4.914-12.805,10.742l-9.798,30.398c-7.039,2.188-14.063,5.063-20.983,8.586l-29.344-15.07 c-1.961-0.992-4.133-1.516-6.305-1.516c-3.359,0-6.617,1.195-9.219,3.406l-5.656,4.906c-5.516,4.977-10.156,9.586-14.328,14.219 c-2.758,3.406-4.242,5.242-5.117,6.383c-3.445,4.234-4.086,9.938-1.695,14.938l15.266,29.352 c-3.461,6.641-6.367,13.633-8.711,20.922l-31.406,9.984c-3.109,1.195-4.648,2.547-5.406,3.203c-0.633,0.563-1.32,1.266-1.813,1.977 c-1.68,2.438-2.563,5.031-2.594,7.742L176.258,301.773z M286.398,312.031c0-31.805,25.789-57.602,57.602-57.602 s57.602,25.797,57.602,57.602c0,31.813-25.789,57.602-57.602,57.602S286.398,343.844,286.398,312.031z M35.664,129.609 c1.586,14.469,6.867,28.461,15.328,40.563L35.32,197.953c-1.688,2.961-1.156,6.609,1.273,9.047 c5.969,5.992,11.883,10.898,18.18,15.156c1.094,0.758,2.273,1.219,3.523,1.383c2.141,0.258,4.398-0.305,6.156-1.664l25.93-20.023 c8.914,3.781,16.719,6.078,24.531,7.156c6.242,0.852,12.852,1.055,19.586,0.516l16.922,26.781c1.313,2.023,3.422,3.289,5.742,3.609 c1.039,0.133,2.117,0.141,3.156-0.18c7.859-1.969,15.477-4.602,22.625-7.859c3.25-1.477,5.078-4.789,4.531-8.203l-4.875-31.211 c11.922-8.336,21.836-19.852,28.625-33.32l33.148-0.781c3.484-0.102,6.563-2.352,7.547-5.617 c1.688-5.734,2.898-10.805,3.594-15.609c0.406-2.758,0.438-5.422,0.484-7.961c0.031-1.477-0.43-2.93-1.242-4.156 c-0.891-1.391-2.234-2.516-3.859-3.102l-30.57-11.5c-1.57-14.398-6.859-28.469-15.305-40.523l15.648-27.82 c1.719-2.977,1.203-6.648-1.266-9.07c-5.898-5.875-11.844-10.828-18.172-15.086c-1.086-0.727-2.273-1.211-3.5-1.352 c-1.086-0.164-2.172-0.078-3.227,0.172c-1.023,0.289-2.039,0.734-2.938,1.422L165.622,38.15 c-9.023-3.813-16.797-6.148-24.508-7.164c-6.273-0.844-12.891-1.023-19.617-0.516L104.578,3.711 c-0.867-1.328-2.055-2.297-3.422-2.914c-0.734-0.352-1.516-0.594-2.328-0.727c-1.031-0.117-2.117-0.109-3.148,0.211 C87.781,2.258,80.172,4.914,73.039,8.18c-3.227,1.547-5.031,4.789-4.508,8.234l4.867,31.141 c-11.945,8.383-21.828,19.89-28.625,33.281l-33.156,0.906c-1.797,0.047-3.469,0.664-4.82,1.711 c-1.281,0.945-2.234,2.281-2.719,3.836c-1.719,5.734-2.898,10.797-3.602,15.625c-0.398,2.727-0.453,5.438-0.477,7.93 c-0.016,3.195,2.008,6.117,5.109,7.258L35.664,129.609z M96,120.016c0-17.672,14.328-32,32-32c17.664,0,32,14.328,32,32 c0,17.68-14.336,32-32,32C110.328,152.016,96,137.695,96,120.016z" fill="#aeaeae"/></g></svg>