<svg version="1.1" xmlns="http://www.w3.org/2000/svg" xmlns:xlink="http://www.w3.org/1999/xlink" viewBox="0 0 828.9734497070312 828.9734497070312"><defs><linearGradient id="SVGID_1_" gradientUnits="userSpaceOnUse" x1="135.8433" y1="108.7959" x2="135.8432" y2="355.174"><stop offset="0" style="stop-color:#F8AF19"/><stop offset="1" style="stop-color:#F6861F"/></linearGradient><linearGradient id="SVGID_2_" gradientUnits="userSpaceOnUse" x1="287.6313" y1="108.6743" x2="287.6313" y2="355.2764"><stop offset="0" style="stop-color:#F8AF19"/><stop offset="1" style="stop-color:#F6861F"/></linearGradient><linearGradient id="SVGID_3_" gradientUnits="userSpaceOnUse" x1="382.5625" y1="108.8438" x2="382.5625" y2="355.2775"><stop offset="0" style="stop-color:#F8AF19"/><stop offset="1" style="stop-color:#F6861F"/></linearGradient><linearGradient id="SVGID_4_" gradientUnits="userSpaceOnUse" x1="513.1387" y1="106.4829" x2="513.1387" y2="355.0569"><stop offset="0" style="stop-color:#F8AF19"/><stop offset="1" style="stop-color:#F6861F"/></linearGradient><linearGradient id="SVGID_5_" gradientUnits="userSpaceOnUse" x1="710.0762" y1="108.6743" x2="710.0762" y2="355.2764"><stop offset="0" style="stop-color:#F8AF19"/><stop offset="1" style="stop-color:#F6861F"/></linearGradient></defs><g transform="translate(-12.50063705444336,174.48861694335939)"><path fill="#231F20" d="M147.528,121.999c22.74,0,42.22,5.09,58.433,15.262c16.213,10.177,26.953,24.042,32.219,41.598l-55.434,14.926 c-1.581-6.818-5.529-12.187-11.846-16.102c-6.317-3.912-13.264-5.869-20.845-5.869c-14.216,0-21.322,5.03-21.322,15.095 c0,3.245,1.001,6.039,3.001,8.384c1.998,2.349,7.631,5.267,16.89,8.747l34.25,12.976c8.942,3.369,17.262,8.323,24.958,14.859 c7.693,6.535,13.226,13.687,16.599,21.453c3.374,7.765,5.062,16.059,5.062,24.886c0,23.13-8.556,42.237-25.664,57.318 c-17.112,15.086-39.931,22.624-68.462,22.624c-24.429,0-45.722-5.255-63.883-15.766c-18.163-10.509-30.825-26.555-37.983-48.137 l62.226-12.917c5.369,16.217,18.635,24.322,39.798,24.322c8.844,0,15.241-1.705,19.188-5.117 c3.948-3.408,5.922-7.295,5.922-11.656c0-2.795-0.765-5.255-2.289-7.379c-1.528-2.124-3.159-3.662-4.897-4.613 c-1.738-0.949-9.919-4.289-24.545-10.018c-19.787-7.745-33.655-13.881-41.61-18.406c-7.955-4.527-14.592-11.259-19.913-20.199 c-5.319-8.94-7.979-19.443-7.979-31.514c0-20.896,7.237-38.58,21.715-53.053C95.594,129.234,117.731,121.999,147.528,121.999 M147.528,100.999c-35.429,0-62.768,9.372-81.257,27.854c-18.492,18.486-27.869,41.332-27.869,67.904 c0,15.844,3.678,30.059,10.932,42.251c6.395,10.744,14.453,19.315,23.994,25.531l-44.095,9.153 c-5.867,1.218-10.933,4.883-13.926,10.074c-2.992,5.19-3.625,11.412-1.738,17.099c8.792,26.505,24.739,46.592,47.399,59.702 c21.312,12.334,46.344,18.589,74.4,18.589c33.666,0,61.372-9.377,82.35-27.872c21.749-19.172,32.776-43.757,32.776-73.07 c0-11.679-2.288-22.867-6.801-33.254c-4.647-10.701-12.139-20.489-22.265-29.09c-3.388-2.877-6.899-5.52-10.521-7.92l32.733-8.813 c5.478-1.475,10.126-5.104,12.886-10.06c2.761-4.956,3.398-10.818,1.768-16.252c-6.745-22.487-20.597-40.437-41.169-53.35 C197.584,107.214,174.169,100.999,147.528,100.999L147.528,100.999z"/><path fill="#231F20" d="M335.973,125.689l-36.005,228.946h-60.684l36.008-228.946H335.973 M335.973,104.689h-60.681 c-10.338,0-19.139,7.524-20.745,17.737l-36.008,228.946c-0.954,6.064,0.794,12.243,4.784,16.91 c3.989,4.666,9.821,7.353,15.961,7.353h60.684c10.338,0,19.139-7.524,20.745-17.737l36.005-228.947 c0.954-6.064-0.794-12.243-4.784-16.909C347.944,107.376,342.113,104.689,335.973,104.689L335.973,104.689z"/><path fill="#231F20" d="M432.025,120.321l-7.855,49.815h-61.971l7.853-49.815H432.025 M421.789,185.231l-26.722,169.404h-61.971l26.722-169.404 H421.789 M432.025,99.321h-61.974c-10.335,0-19.134,7.521-20.744,17.73l-7.853,49.815c-0.412,2.61-0.323,5.242,0.23,7.765 c-1.29,2.205-2.194,4.676-2.612,7.328l-26.722,169.404c-0.957,6.066,0.79,12.247,4.779,16.916 c3.99,4.668,9.823,7.356,15.964,7.356h61.971c10.335,0,19.133-7.52,20.744-17.728l26.722-169.405 c0.412-2.611,0.322-5.244-0.23-7.768c1.29-2.205,2.193-4.676,2.612-7.329l7.855-49.815c0.956-6.066-0.79-12.247-4.78-16.915 C443.999,102.009,438.166,99.321,432.025,99.321L432.025,99.321z"/><path fill="#231F20" d="M522.928,179.362c19.688,0,36.377,6.289,50.066,18.869c13.684,12.578,20.53,28.765,20.53,48.556l-54.171,6.709 c0-18.337-5.843-27.506-17.529-27.506c-10.005,0-17.112,7.507-21.322,22.519c-4.212,15.012-6.317,28.122-6.317,39.323 c0,16.583,5.896,24.872,17.689,24.872c11.581,0,19.898-7.938,24.952-23.817l48.168,12.58 c-8.63,21.918-19.953,37.097-33.954,45.538c-14.004,8.441-28.481,12.663-43.432,12.663c-22.006,0-39.983-7.414-53.932-22.244 c-13.954-14.828-20.927-33.883-20.927-57.166c0-26.523,8.236-49.97,24.717-70.34C473.942,189.549,495.766,179.362,522.928,179.362 M522.928,158.362c-16.609,0-31.958,3.233-45.62,9.61c-13.776,6.43-25.945,16.099-36.168,28.738 c-19.501,24.104-29.39,52.214-29.39,83.547c0,28.702,8.961,52.778,26.634,71.558c18.005,19.144,41.297,28.853,69.225,28.853 c18.755,0,37.015-5.274,54.272-15.678c17.986-10.845,32.337-29.628,42.653-55.83c2.2-5.588,1.902-11.852-0.818-17.206 s-7.604-9.288-13.415-10.806l-33.249-8.684l39.054-4.837c10.52-1.303,18.419-10.241,18.419-20.841 c0-25.815-9.191-47.354-27.318-64.017C569.581,166.574,547.955,158.362,522.928,158.362L522.928,158.362z M515.191,286.861 c0.106-7.726,1.477-16.861,4.079-27.228c1.122,3.671,3.241,7.003,6.176,9.598c0.463,0.409,0.942,0.796,1.435,1.159 c-4.644,2.498-8.349,6.732-10.065,12.127C516.26,284.263,515.71,285.692,515.191,286.861L515.191,286.861z"/><path fill="#231F20" d="M820.473,125.689l-72.511,86.788l41.243,142.158h-63.623l-24.374-94.548l-32.698,38.723l-8.783,55.825H599.68 l36.017-228.946h60.038l-16.545,105.178c3.48-8.706,8.668-17.332,15.563-25.873c6.895-8.54,18.052-22.717,33.462-42.532 l30.715-36.773H820.473 M820.473,104.689h-61.544c-6.224,0-12.128,2.761-16.117,7.538l-29.2,34.96l2.868-18.234 c0.954-6.065-0.794-12.244-4.784-16.91c-3.989-4.667-9.821-7.353-15.961-7.353h-60.038c-10.338,0-19.139,7.524-20.745,17.736 l-36.017,228.946c-0.954,6.065,0.794,12.244,4.784,16.91c3.989,4.667,9.821,7.354,15.961,7.354h60.047 c10.338,0,19.138-7.523,20.745-17.736l7.87-50.025l2.681-3.174l14.225,55.178c2.391,9.275,10.756,15.758,20.335,15.758h63.623 c6.604,0,12.824-3.107,16.791-8.388c3.967-5.281,5.218-12.12,3.377-18.464l-38.128-131.421l65.343-78.209 c5.228-6.257,6.361-14.974,2.908-22.359C836.042,109.409,828.626,104.689,820.473,104.689L820.473,104.689z"/><path fill="#FFFFFF" d="M147.528,121.999c22.74,0,42.22,5.09,58.433,15.262c16.213,10.177,26.953,24.042,32.219,41.598 l-55.434,14.926c-1.581-6.818-5.529-12.187-11.846-16.102c-6.317-3.912-13.264-5.869-20.845-5.869 c-14.216,0-21.322,5.03-21.322,15.095c0,3.245,1.001,6.039,3.001,8.384c1.998,2.349,7.631,5.267,16.89,8.747l34.25,12.976 c8.942,3.369,17.262,8.323,24.958,14.859c7.693,6.535,13.226,13.687,16.599,21.453c3.374,7.765,5.062,16.059,5.062,24.886 c0,23.13-8.556,42.237-25.664,57.318c-17.112,15.086-39.931,22.624-68.462,22.624c-24.429,0-45.722-5.255-63.883-15.766 c-18.163-10.509-30.825-26.555-37.983-48.137l62.226-12.917c5.369,16.217,18.635,24.322,39.798,24.322 c8.844,0,15.241-1.705,19.188-5.117c3.948-3.408,5.922-7.295,5.922-11.656c0-2.795-0.765-5.255-2.289-7.379 c-1.528-2.124-3.159-3.662-4.897-4.613c-1.738-0.949-9.919-4.289-24.545-10.018c-19.787-7.745-33.655-13.881-41.61-18.406 c-7.955-4.527-14.592-11.259-19.913-20.199c-5.319-8.94-7.979-19.443-7.979-31.514c0-20.896,7.237-38.58,21.715-53.053 C95.594,129.234,117.731,121.999,147.528,121.999 M147.528,107.999c-33.506,0-59.179,8.682-76.308,25.805 c-17.131,17.125-25.817,38.307-25.817,62.954c0,14.566,3.347,27.578,9.947,38.672c6.552,11.008,14.969,19.488,25.02,25.209 c3.56,2.024,8.067,4.287,13.582,6.812c-0.356,0.046-0.713,0.105-1.07,0.18l-62.226,12.917c-3.911,0.813-7.289,3.256-9.283,6.716 c-1.995,3.461-2.417,7.608-1.159,11.399c8.236,24.831,23.127,43.62,44.26,55.848c20.233,11.71,44.086,17.647,70.895,17.647 c31.911,0,58.06-8.789,77.721-26.122c20.175-17.786,30.405-40.604,30.405-67.82c0-10.714-2.093-20.964-6.221-30.465 c-4.217-9.71-11.073-18.642-20.376-26.544c-7.614-6.467-15.883-11.662-24.639-15.483l49.563-13.345 c3.652-0.983,6.75-3.402,8.591-6.707s2.265-7.212,1.179-10.834c-6.244-20.816-19.092-37.447-38.186-49.433 C194.996,113.854,172.833,107.999,147.528,107.999L147.528,107.999z M143.368,186.532c1.147-0.333,3.221-0.717,6.688-0.717 c4.968,0,9.375,1.234,13.475,3.772c3.083,1.911,4.8,4.146,5.547,7.232l-15.493-5.87 C148.091,188.884,145.006,187.415,143.368,186.532L143.368,186.532z M135.525,291.66c-19.063,0-24.097-7.442-26.507-14.723 c-0.455-1.373-1.104-2.633-1.909-3.756c5.014,2.095,10.571,4.336,16.693,6.732c16.344,6.401,21.218,8.486,22.649,9.14 c-0.175,0.217-0.458,0.522-0.886,0.892C145.009,290.427,142.134,291.66,135.525,291.66L135.525,291.66z"/><path fill="#FFFFFF" d="M335.973,125.689l-36.005,228.946h-60.684l36.008-228.946H335.973 M335.973,111.689h-60.681 c-6.892,0-12.759,5.016-13.83,11.825l-36.008,228.947c-0.636,4.043,0.529,8.162,3.189,11.272c2.66,3.111,6.548,4.902,10.641,4.902 h60.684c6.892,0,12.759-5.017,13.83-11.825l36.005-228.946c0.636-4.043-0.529-8.162-3.189-11.273 C343.954,113.48,340.066,111.689,335.973,111.689L335.973,111.689z"/><path fill="#FFFFFF" d="M432.025,120.321l-7.855,49.815h-61.971l7.853-49.815H432.025 M421.789,185.231l-26.722,169.404h-61.971 l26.722-169.404H421.789 M432.025,106.321h-61.974c-6.891,0-12.756,5.014-13.829,11.82l-7.853,49.815 c-0.427,2.708-0.046,5.449,1.05,7.899c-1.767,1.958-2.996,4.428-3.432,7.195l-26.722,169.404 c-0.638,4.044,0.526,8.165,3.187,11.277c2.66,3.112,6.548,4.904,10.643,4.904h61.971c6.89,0,12.755-5.013,13.829-11.818 l26.721-169.405c0.428-2.708,0.047-5.45-1.05-7.9c1.768-1.958,2.995-4.428,3.432-7.195l7.855-49.815 c0.638-4.044-0.526-8.165-3.187-11.276C440.008,108.113,436.119,106.321,432.025,106.321L432.025,106.321z"/><path fill="#FFFFFF" d="M522.928,179.362c19.688,0,36.377,6.289,50.066,18.869c13.684,12.578,20.53,28.765,20.53,48.556 l-54.171,6.709c0-18.337-5.843-27.506-17.529-27.506c-10.005,0-17.112,7.507-21.322,22.519 c-4.212,15.012-6.317,28.122-6.317,39.323c0,16.583,5.896,24.872,17.689,24.872c11.581,0,19.898-7.938,24.952-23.817l48.168,12.58 c-8.632,21.918-19.953,37.097-33.954,45.538c-14.004,8.441-28.481,12.663-43.432,12.663c-22.006,0-39.983-7.414-53.932-22.244 c-13.954-14.828-20.927-33.883-20.927-57.166c0-26.523,8.236-49.97,24.717-70.34C473.942,189.549,495.766,179.362,522.928,179.362 M522.928,165.362c-31.471,0-57.157,12.028-76.346,35.75c-18.468,22.827-27.832,49.456-27.832,79.145 c0,26.86,8.321,49.322,24.731,66.761c16.631,17.683,38.207,26.649,64.127,26.649c17.463,0,34.507-4.937,50.659-14.673 c16.636-10.03,30.01-27.659,39.753-52.398c1.467-3.726,1.269-7.901-0.545-11.472c-1.813-3.569-5.069-6.192-8.943-7.204 l-48.168-12.58c-1.184-0.309-2.374-0.457-3.545-0.457c-5.958,0-11.447,3.828-13.334,9.757 c-4.476,14.063-9.66,14.063-11.611,14.063c-1.142,0-1.655-0.174-1.775-0.222c-0.527-0.555-1.914-3.554-1.914-10.65 c0-9.874,1.95-21.832,5.797-35.541c1.037-3.699,3.878-12.301,7.843-12.301c0.646,0,0.993,0.073,1.13,0.111 c0.334,0.402,2.399,3.31,2.399,13.395c0,4.013,1.722,7.833,4.729,10.49c2.573,2.274,5.876,3.51,9.271,3.51 c0.572,0,1.147-0.035,1.722-0.106l54.171-6.709c7.013-0.868,12.279-6.827,12.279-13.894c0-23.776-8.43-43.581-25.056-58.863 C566.177,172.953,546.146,165.362,522.928,165.362L522.928,165.362z"/><path fill="#FFFFFF" d="M820.473,125.689l-72.513,86.788l41.242,142.158h-63.618l-24.379-94.548l-32.698,38.723l-8.782,55.825 h-60.043l36.013-228.946h60.038l-16.54,105.178c3.476-8.706,8.663-17.332,15.558-25.873c6.898-8.54,18.051-22.717,33.466-42.532 l30.715-36.773H820.473 M820.473,111.689h-61.542c-4.149,0-8.085,1.841-10.745,5.025l-30.715,36.773 c-0.104,0.124-0.205,0.25-0.305,0.378c-5.444,6.999-10.316,13.242-14.644,18.765l7.04-44.767 c0.636-4.043-0.529-8.162-3.189-11.273s-6.548-4.902-10.641-4.902h-60.038c-6.893,0-12.759,5.016-13.83,11.825L585.852,352.46 c-0.636,4.044,0.529,8.163,3.189,11.273c2.659,3.111,6.548,4.902,10.641,4.902h60.043c6.892,0,12.759-5.016,13.83-11.824 l8.174-51.959l12.688-15.024l17.611,68.303c1.595,6.184,7.171,10.505,13.557,10.505h63.618c4.403,0,8.55-2.071,11.194-5.592 s3.479-8.08,2.251-12.309l-39.165-135.001l67.733-81.068c3.485-4.171,4.241-9.983,1.938-14.907 C830.853,114.835,825.908,111.689,820.473,111.689L820.473,111.689z"/><path fill="url(#SVGID_1_)" d="M135.37,361.657c-24.938,0-47.021-5.463-65.637-16.236c-18.842-10.901-32.149-27.745-39.552-50.064 c-0.314-0.947-0.209-1.984,0.29-2.85s1.343-1.476,2.321-1.679l62.226-12.917c0.239-0.05,0.478-0.073,0.713-0.073 c1.481,0,2.839,0.944,3.321,2.4c4.883,14.751,16.814,21.922,36.475,21.922c7.939,0,13.625-1.435,16.9-4.266 c3.17-2.736,4.71-5.683,4.71-9.008c0-2.061-0.534-3.807-1.633-5.34c-1.211-1.683-2.469-2.89-3.733-3.582 c-0.9-0.492-5.238-2.425-24.141-9.829c-19.841-7.766-33.994-14.032-42.064-18.623c-8.452-4.81-15.582-12.027-21.19-21.451 c-5.622-9.449-8.472-20.654-8.472-33.304c0-21.761,7.651-40.443,22.741-55.528c15.088-15.083,38.264-22.731,68.884-22.731 c23.3,0,43.586,5.315,60.294,15.797c16.877,10.594,28.219,25.249,33.711,43.557c0.271,0.906,0.165,1.883-0.295,2.709 c-0.46,0.826-1.235,1.431-2.147,1.676l-55.435,14.926c-0.299,0.081-0.605,0.121-0.91,0.121c-0.628,0-1.251-0.169-1.799-0.498 c-0.814-0.488-1.396-1.287-1.61-2.211c-1.375-5.93-4.737-10.482-10.28-13.917c-5.727-3.546-12.12-5.344-19.001-5.344 c-17.822,0-17.822,8.424-17.822,11.595c0,2.405,0.708,4.405,2.165,6.113c0.728,0.856,3.686,3.316,15.458,7.742l34.259,12.979 c9.271,3.492,18.015,8.696,25.984,15.465c8.068,6.853,13.971,14.5,17.544,22.726c3.551,8.173,5.351,17.015,5.351,26.28 c0,24.07-9.033,44.238-26.849,59.943C188.46,353.751,164.647,361.657,135.37,361.657z"/><path fill="#231F20" d="M147.53,121.999c22.741,0,42.22,5.09,58.434,15.262c16.213,10.177,26.953,24.042,32.219,41.598l-55.435,14.926 c-1.581-6.818-5.528-12.187-11.846-16.102c-6.317-3.912-13.264-5.869-20.845-5.869c-14.216,0-21.322,5.03-21.322,15.095 c0,3.245,1.001,6.039,3.001,8.384c1.998,2.349,7.631,5.267,16.89,8.747l34.25,12.976c8.942,3.369,17.262,8.323,24.958,14.859 c7.693,6.535,13.227,13.687,16.6,21.453c3.374,7.765,5.062,16.059,5.062,24.886c0,23.13-8.556,42.237-25.664,57.318 c-17.112,15.086-39.931,22.624-68.462,22.624c-24.429,0-45.722-5.255-63.883-15.766c-18.163-10.509-30.825-26.555-37.983-48.137 l62.226-12.917c5.369,16.217,18.635,24.322,39.798,24.322c8.844,0,15.241-1.705,19.188-5.117 c3.948-3.408,5.922-7.295,5.922-11.656c0-2.795-0.766-5.255-2.289-7.379c-1.528-2.124-3.159-3.662-4.897-4.613 c-1.738-0.949-9.919-4.289-24.545-10.018c-19.787-7.745-33.655-13.881-41.61-18.406c-7.955-4.527-14.592-11.259-19.913-20.199 c-5.319-8.94-7.979-19.443-7.979-31.514c0-20.896,7.238-38.58,21.716-53.053C95.596,129.234,117.733,121.999,147.53,121.999 M147.53,114.999c-31.583,0-55.591,7.993-71.359,23.755c-15.77,15.765-23.767,35.28-23.767,58.003 c0,13.289,3.016,25.096,8.964,35.093c5.923,9.952,13.482,17.591,22.466,22.704c8.333,4.74,22.242,10.903,42.521,18.841 c19.28,7.552,23.028,9.261,23.745,9.645c0.542,0.297,1.437,0.986,2.566,2.557c0.66,0.92,0.971,1.969,0.971,3.29 c0,1.434-0.362,3.652-3.496,6.357c-1.805,1.56-5.802,3.416-14.614,3.416c-23.923,0-30.378-11.142-33.152-19.522 c-0.964-2.911-3.679-4.801-6.641-4.801c-0.472,0-0.949,0.048-1.427,0.147l-62.226,12.917c-1.956,0.405-3.645,1.627-4.642,3.357 c-0.998,1.73-1.208,3.805-0.58,5.7c7.681,23.155,21.516,40.648,41.122,51.991c19.154,11.086,41.827,16.707,67.389,16.707 c30.155,0,54.746-8.2,73.091-24.373c18.603-16.399,28.035-37.45,28.035-62.569c0-9.748-1.898-19.06-5.641-27.675 c-3.788-8.722-10.008-16.796-18.488-23.999c-8.275-7.03-17.367-12.438-27.021-16.075l-34.238-12.971 c-11.611-4.364-13.838-6.523-14.054-6.755c-0.908-1.065-1.317-2.25-1.317-3.831c0-2.829,0-8.095,14.322-8.095 c6.308,0,11.921,1.577,17.16,4.821c4.708,2.917,7.558,6.754,8.711,11.73c0.429,1.851,1.591,3.447,3.22,4.423 c1.097,0.658,2.343,0.996,3.6,0.996c0.609,0,1.221-0.08,1.819-0.241l55.435-14.926c1.826-0.492,3.375-1.701,4.296-3.353 c0.92-1.652,1.132-3.606,0.589-5.417c-5.743-19.144-17.586-34.458-35.202-45.515C192.411,120.494,171.499,114.999,147.53,114.999 L147.53,114.999z"/><path fill="url(#SVGID_2_)" d="M239.287,358.136c-1.023,0-1.995-0.448-2.66-1.226s-0.956-1.808-0.797-2.818l36.007-228.946 c0.268-1.702,1.734-2.956,3.458-2.956h60.682c1.023,0,1.995,0.448,2.66,1.226s0.957,1.807,0.797,2.818L303.428,355.18 c-0.268,1.702-1.734,2.956-3.458,2.956H239.287z"/><path fill="#231F20" d="M335.976,125.689l-36.005,228.946h-60.684l36.007-228.946H335.976 M335.976,118.689h-60.682 c-3.446,0-6.379,2.508-6.915,5.913l-36.007,228.946c-0.318,2.022,0.265,4.081,1.595,5.637c1.33,1.556,3.274,2.451,5.32,2.451 h60.684c3.446,0,6.38-2.508,6.915-5.912l36.005-228.947c0.318-2.021-0.265-4.081-1.595-5.636 C339.966,119.585,338.022,118.689,335.976,118.689L335.976,118.689z"/><path fill="url(#SVGID_3_)" d="M333.098,358.136c-1.023,0-1.996-0.448-2.661-1.226c-0.665-0.778-0.956-1.809-0.796-2.819 l26.721-169.405c0.269-1.701,1.735-2.955,3.458-2.955h61.971c1.023,0,1.996,0.448,2.661,1.226 c0.665,0.778,0.956,1.808,0.796,2.819l-26.721,169.404c-0.269,1.702-1.735,2.955-3.458,2.955H333.098z M362.202,173.636 c-1.023,0-1.996-0.448-2.661-1.226c-0.665-0.778-0.956-1.808-0.797-2.819l7.853-49.815c0.269-1.702,1.735-2.955,3.458-2.955 h61.973c1.023,0,1.996,0.448,2.661,1.226c0.664,0.778,0.955,1.808,0.796,2.819l-7.855,49.816 c-0.268,1.701-1.734,2.955-3.457,2.955H362.202z"/><path fill="#231F20" d="M432.027,120.321l-7.855,49.815h-61.971l7.853-49.815H432.027 M421.791,185.231l-26.722,169.404h-61.971l26.722-169.404 H421.791 M432.027,113.321h-61.973c-3.445,0-6.378,2.507-6.915,5.91l-7.853,49.815c-0.319,2.022,0.264,4.082,1.593,5.638 c1.33,1.556,3.274,2.452,5.321,2.452h61.971c3.445,0,6.378-2.507,6.915-5.91l7.854-49.815c0.319-2.022-0.263-4.082-1.593-5.638 S434.074,113.321,432.027,113.321L432.027,113.321z M421.791,178.231H359.82c-3.445,0-6.378,2.506-6.915,5.909l-26.722,169.404 c-0.319,2.022,0.263,4.082,1.593,5.639c1.33,1.556,3.274,2.452,5.321,2.452h61.971c3.445,0,6.378-2.507,6.915-5.909 l26.721-169.404c0.319-2.022-0.263-4.083-1.593-5.639C425.783,179.127,423.838,178.231,421.791,178.231L421.791,178.231z"/><path fill="url(#SVGID_4_)" d="M507.611,363.168c-22.908,0-41.912-7.854-56.482-23.347 c-14.517-15.427-21.877-35.467-21.877-59.563c0-27.224,8.578-51.63,25.497-72.542c17.097-21.137,40.036-31.854,68.182-31.854 c20.503,0,38.144,6.659,52.434,19.792c14.374,13.213,21.662,30.417,21.662,51.133c0,1.767-1.316,3.256-3.069,3.474l-54.17,6.709 c-0.144,0.018-0.288,0.026-0.431,0.026c-0.849,0-1.675-0.309-2.317-0.877c-0.752-0.665-1.183-1.62-1.183-2.623 c0-21.518-8.007-24.006-14.029-24.006c-8.313,0-14.185,6.53-17.952,19.964c-4.105,14.63-6.188,27.542-6.188,38.378 c0,19.156,8.098,21.372,14.188,21.372c9.968,0,17.039-6.993,21.618-21.379c0.472-1.482,1.844-2.439,3.333-2.439 c0.293,0,0.591,0.037,0.887,0.114l48.168,12.58c0.969,0.253,1.782,0.909,2.235,1.802c0.454,0.893,0.503,1.937,0.137,2.867 c-8.88,22.545-20.792,38.442-35.404,47.253C538.357,358.738,523.137,363.168,507.611,363.168z"/><path fill="#231F20" d="M522.931,179.362c19.687,0,36.377,6.289,50.065,18.869c13.684,12.578,20.53,28.765,20.53,48.556l-54.17,6.709 c0-18.337-5.844-27.506-17.529-27.506c-10.006,0-17.112,7.507-21.322,22.519c-4.213,15.012-6.317,28.122-6.317,39.323 c0,16.583,5.896,24.872,17.688,24.872c11.581,0,19.899-7.938,24.953-23.817l48.168,12.58 c-8.633,21.918-19.954,37.097-33.955,45.538c-14.003,8.441-28.481,12.663-43.431,12.663c-22.007,0-39.984-7.414-53.933-22.244 c-13.953-14.828-20.927-33.883-20.927-57.166c0-26.523,8.237-49.97,24.718-70.34C473.945,189.549,495.768,179.362,522.931,179.362 M522.931,172.362c-29.254,0-53.109,11.154-70.903,33.153c-17.435,21.55-26.275,46.698-26.275,74.743 c0,25.018,7.681,45.865,22.829,61.963c15.257,16.222,35.118,24.447,59.03,24.447c16.172,0,32-4.599,47.045-13.668 c15.287-9.217,27.687-25.692,36.854-48.968c0.734-1.863,0.635-3.951-0.271-5.736c-0.907-1.785-2.535-3.096-4.473-3.602 l-48.168-12.58c-0.592-0.155-1.187-0.229-1.772-0.229c-2.979-0.001-5.723,1.913-6.666,4.878 c-5.403,16.977-13.022,18.94-18.283,18.94c-3.47,0-10.688,0-10.688-17.872c0-10.517,2.038-23.11,6.057-37.432 c4.883-17.41,12.184-17.41,14.583-17.41c3.15,0,10.529,0,10.529,20.506c0,2.007,0.861,3.916,2.364,5.245 c1.287,1.137,2.938,1.755,4.636,1.755c0.286,0,0.573-0.018,0.86-0.053l54.17-6.709c3.507-0.435,6.14-3.414,6.14-6.947 c0-21.737-7.669-39.807-22.793-53.709C562.776,179.332,544.339,172.362,522.931,172.362L522.931,172.362z"/><path fill="url(#SVGID_5_)" d="M725.586,358.136c-1.597,0-2.99-1.08-3.389-2.626l-22.689-87.987l-27.695,32.799l-8.625,54.858 c-0.269,1.702-1.735,2.956-3.458,2.956h-60.045c-1.023,0-1.995-0.448-2.66-1.226s-0.956-1.808-0.797-2.818l36.01-228.946 c0.268-1.702,1.734-2.956,3.457-2.956h60.038c1.023,0,1.995,0.448,2.66,1.226c0.665,0.777,0.956,1.807,0.797,2.818l-13.352,84.916 c1.896-2.802,3.962-5.589,6.194-8.353c6.854-8.488,18.1-22.781,33.423-42.482c0.025-0.032,30.792-36.868,30.792-36.868 c0.665-0.796,1.649-1.256,2.687-1.256h61.534c1.358,0,2.595,0.787,3.171,2.018c0.575,1.231,0.387,2.684-0.485,3.727 l-71.313,85.358l40.723,140.369c0.307,1.058,0.099,2.197-0.563,3.077c-0.661,0.881-1.698,1.398-2.799,1.398H725.586z"/><path fill="#231F20" d="M820.468,125.689l-72.508,86.788l41.242,142.158h-63.616l-24.381-94.548l-32.698,38.723l-8.777,55.825h-60.045 l36.01-228.946h60.038l-16.538,105.178c3.474-8.706,8.661-17.332,15.561-25.873c6.896-8.54,18.051-22.717,33.463-42.532 l30.716-36.773H820.468 M820.468,118.689h-61.534c-2.074,0-4.042,0.92-5.372,2.513l-30.716,36.773 c-0.053,0.062-0.104,0.125-0.153,0.19c-13.8,17.743-24.287,31.092-31.231,39.756l11.187-71.145 c0.317-2.021-0.265-4.081-1.595-5.637c-1.33-1.555-3.273-2.451-5.32-2.451h-60.038c-3.446,0-6.38,2.508-6.915,5.913 l-36.01,228.946c-0.318,2.021,0.265,4.081,1.595,5.637s3.273,2.451,5.32,2.451h60.045c3.446,0,6.38-2.509,6.915-5.913 l8.474-53.892l22.692-26.873l20.997,81.426c0.797,3.092,3.586,5.252,6.778,5.252h63.616c2.201,0,4.274-1.036,5.597-2.796 c1.322-1.761,1.739-4.04,1.126-6.154l-40.204-138.58l70.119-83.928c1.742-2.086,2.12-4.992,0.969-7.454 C825.657,120.263,823.186,118.689,820.468,118.689L820.468,118.689z"/></g></svg>