<svg version="1.1" xmlns="http://www.w3.org/2000/svg" viewBox="0 0 33 49.5"><path d="M21.57,8.668c0.851,0.75,1.275,2.143,1.275,4.178c0,1.605-0.209,2.73-0.628,3.373c-0.419,0.641-1.346,1.266-2.78,1.875 c-1.396,0.588-2.098,1.383-2.098,2.381v0.457h-3.308c0-1.617,0.157-2.684,0.47-3.201c0.314-0.52,1.137-1.055,2.468-1.604 l1.27-0.541c1.056-0.438,1.582-1.321,1.582-2.651c0-1.104-0.196-1.814-0.592-2.134c-0.395-0.317-1.275-0.479-2.646-0.479 c-1.284,0-2.14,0.171-2.567,0.509c-0.428,0.336-0.642,1.01-0.642,2.019l0.015,0.739h-3.237l0.014-0.711 c0-2.104,0.452-3.517,1.355-4.244c0.903-0.728,2.667-1.09,5.29-1.09C19.134,7.541,20.719,7.916,21.57,8.668z M14.033,27.176h3.265 v-3.508h-3.265V27.176z M33,16.5C33,25.598,25.598,33,16.5,33C7.402,33,0,25.598,0,16.5C0,7.402,7.402,0,16.5,0 C25.598,0,33,7.402,33,16.5z M29,16.5C29,9.607,23.393,4,16.5,4C9.607,4,4,9.607,4,16.5C4,23.393,9.607,29,16.5,29 C23.393,29,29,23.393,29,16.5z"/> </svg>